<?xml version="1.0" encoding="UTF-8"?>
<!DOCTYPE svg PUBLIC "-//W3C//DTD SVG 1.1//EN" "http://www.w3.org/Graphics/SVG/1.1/DTD/svg11.dtd">
<svg version="1.1" xmlns="http://www.w3.org/2000/svg" xmlns:xlink="http://www.w3.org/1999/xlink" x="0" y="0" width="502.285" height="641.229" viewBox="0, 0, 502.285, 641.229">
  <g id="Layer_1">
    <path d="M208.213,0.002 C197.226,-0.093 184.095,3.11 161.186,10.902 C137.311,19.022 131.49,21.462 93.75,39.16 C68.112,51.12 37.16,64.068 -0,72.607 C-0,73.09 9.742,79.446 36.75,96.582 C80.691,124.462 109.104,138.347 138.375,146.242 C150.2,149.432 161.528,149.1 181.125,144.991 C185.981,143.966 190.842,142.996 195.75,142.272 L195.76,154.933 C195.794,193.569 200.568,233.749 212.323,294.343 C214.804,307.131 217.344,320.293 217.967,323.593 C218.591,326.893 221.264,338.208 223.907,348.736 C230.923,376.679 232.527,387.086 232.527,387.086 C218.958,385.962 204.653,384.784 191.808,384.72 C183.645,376.361 172.776,369.933 163.875,366.635 C157.507,364.275 156.564,364.158 147,364.136 C135.049,364.108 128.481,365.646 119.032,370.679 C110.51,375.219 104.675,380.451 97.412,390.068 C78.23,415.469 66.781,433.511 57.498,452.97 C46.751,475.496 43.816,490.414 47.213,505.237 C48.393,510.385 52.908,515.545 58.477,518.109 C62.322,519.879 63.6,520.04 75.965,520.318 C87.942,520.586 89.734,519.939 89.392,521.052 C83.221,541.114 86.668,564.621 99.357,582.345 C103.825,588.585 119.478,604.783 127.746,611.722 C142.542,624.14 158.413,632.351 173.25,635.262 C178.649,636.322 192.805,636.263 199.266,635.154 C207.065,633.815 226.377,626.878 238.103,617.987 C249.828,609.096 255.523,600.35 259.644,592.187 C261.588,588.335 261.869,587.084 261.529,583.786 C260.989,578.56 258.714,574.38 254.842,571.502 C248.251,566.604 234.06,560.733 224.769,559.06 C215.861,557.456 209.879,557.031 192.75,556.785 C174.77,556.527 167.705,557.573 165.981,558.239 C161.863,559.832 164.676,563.257 165.939,563.659 C166.15,563.726 172.613,564.132 180.423,564.362 C206.523,565.133 225.702,567.249 235.645,570.455 C242.466,572.654 249.943,577.269 251.899,580.486 C254.919,585.451 250.95,593.851 241.188,603.157 C238.267,605.942 235.482,608.22 232.029,611.456 C228.576,614.693 226.876,615.792 217.08,620.598 C206.466,625.804 199.212,627.321 185.25,627.253 C174.966,627.202 172.878,626.97 167.143,625.235 C159.818,623.019 151.534,618.481 139.272,609.967 C127.879,602.058 109.89,584.078 104.782,575.495 C96.498,561.577 93.397,550.666 93.863,537.065 C94.111,529.825 94.377,528.553 96.57,524.1 C99.794,517.549 108.494,509.173 115.258,506.106 C124.851,501.756 138.892,498.109 152.498,496.43 C162.17,495.237 194.994,495.906 208.125,497.564 C224.096,499.58 255.666,505.168 258.88,506.548 C265.678,506.937 266.212,499.371 261.562,498.348 C251.675,495.999 223.192,490.931 212.227,489.569 C200.437,488.105 195.026,487.856 175.875,487.9 C154.673,487.949 152.784,488.068 143.124,489.954 C131.266,492.27 123.183,494.699 113.459,498.869 C109.655,500.501 106.205,501.626 105.792,501.371 C103.693,500.074 102.097,485.44 103.395,479.39 C105.047,471.683 109.242,465.289 116.971,458.691 C124.068,452.634 132.23,449.737 153.375,445.777 C162.597,444.05 201.153,443.656 212.399,445.174 C242.615,449.251 249.035,450.183 258.375,451.842 C264.15,452.868 269.45,453.711 270.152,453.714 C275.913,454.27 279.052,449.592 272.996,447.261 C273.002,446.052 240.142,439.959 223.308,438.017 C206.475,436.075 173.841,435.655 164.25,436.559 C152.704,437.648 135.7,441.345 126.063,444.633 C120.254,446.615 119.426,447.225 117.671,448.065 C117.671,448.065 116.995,440.922 117.13,435.217 C117.435,422.326 118.423,419.912 126.809,411.578 C135.709,402.732 142.958,399.624 163.597,395.81 C172.119,394.235 174.952,394.099 198.375,394.121 C224.706,394.147 228.856,394.457 252.75,398.179 C261.195,399.494 271.407,401.978 276.259,402.366 C286.633,403.196 282.019,395.51 277.667,394.493 C266.782,391.952 259.649,390.738 251.575,389.605 C247.089,388.975 241.215,388.4 241.215,388.4 C241.215,388.4 239.813,381.113 238.027,372.759 C236.241,364.405 236.353,364.878 231.138,342.739 C225.923,320.601 224.528,314.019 223.05,307.304 C221.573,300.589 220.219,294.251 219.139,289.02 C218.06,283.789 217.395,280.582 213.818,259.551 C210.24,238.52 209.892,236.127 208.457,225.21 C207.005,214.156 206.149,204.061 205.009,188.22 C204.255,177.726 204.254,133.253 205.008,125.22 C205.652,118.348 205.724,117.758 206.607,112.095 C207.512,106.295 207.607,105.848 209.678,97.572 C214.723,77.408 223.619,64.398 236.704,58.054 C241.417,55.768 242.725,55.47 248.029,55.47 C255.823,55.47 258.455,56.393 259.419,59.467 C260.356,62.453 261.575,67.267 263.239,74.372 C264.902,81.476 265.759,84.851 265.9,85.47 C267.822,93.898 272.861,115.849 275.813,128.802 C279.049,143 282.797,158.712 289.139,185.6 C295.481,212.488 306.068,257.261 312.746,285.345 C316.08,299.37 323.163,329.239 328.485,351.72 C333.808,374.201 340.217,401.201 342.727,411.72 C347.569,432.016 352.245,453.264 357.004,476.595 C358.603,484.432 361.635,499.114 363.741,509.22 C374.338,560.067 376.913,573.34 381.352,599.97 C383.999,615.851 386.561,631.629 387.044,635.032 L387.923,641.22 L391.211,641.22 C395.214,641.22 395.13,642.131 392.67,625.47 C384.926,573.008 367.67,487.361 349.542,411.417 C348.351,406.427 345.806,395.764 343.887,387.72 C341.967,379.676 338.382,364.32 335.919,353.595 C333.457,342.87 330.425,329.876 329.181,324.72 C327.937,319.564 325.07,307.245 322.811,297.345 C320.551,287.445 317.214,272.932 315.394,265.095 C312.418,253.129 287.335,139.875 286.091,135.119 C301.48,142.528 324.071,145.949 341.183,145.256 C351.803,144.826 355.87,143.745 374.625,136.731 C400.765,126.954 443.749,106.372 468.75,91.476 C473.601,88.585 503.003,72.74 502.271,71.492 C489.111,69.184 474.168,65.73 463.042,61.953 C450.482,57.69 444.093,54.982 419.625,43.67 C408.488,38.522 394.312,32.109 364.275,18.962 C334.238,5.814 310.905,-0.055 288.032,0.918 C277.224,1.377 271.116,3.17 264.256,7.895 C258.204,12.167 253.678,19.261 248.666,24.487 C248.231,24.343 246.256,21.471 244.276,18.105 C238.923,9 230.872,3.649 218.767,1.149 C215.299,0.433 211.875,0.034 208.213,0.002 z M479.802,73.593 C480.241,73.588 480.578,73.748 480.902,74.072 C482.074,75.243 475.06,78.431 468.246,79.823 C461.26,81.25 454.591,81.604 418.5,82.461 C331.957,84.516 315.828,85.164 297.75,87.31 C288.881,88.362 280.191,89.436 278.438,89.696 C275.44,90.14 275.25,90.06 275.25,88.363 C275.25,86.633 275.615,86.504 284.062,85.253 C307.873,81.726 328.514,80.707 393.75,79.839 C427.391,79.391 435.469,79.078 453.297,77.532 C468.901,76.179 475.543,75.261 478.085,74.103 C478.821,73.767 479.363,73.598 479.802,73.593 z M25.717,75.809 C26.539,75.799 27.731,75.878 29.437,76.027 C32.428,76.29 54.956,76.654 79.5,76.836 C156.643,77.408 169.105,78.036 190.915,82.455 C201.481,84.596 202.845,85.043 203.118,86.462 C203.435,88.104 201.417,88.018 187.875,85.811 C163.252,81.798 141.691,80.583 90.75,80.333 C58.836,80.176 29.701,79.239 25.73,78.242 C24.779,78.003 24,77.3 24,76.679 C24,76.089 24.346,75.826 25.717,75.809 z M146.505,372.806 C153.553,372.756 160.51,374.206 166.689,377.29 C172.538,380.21 178.283,384.365 178.284,385.061 C173.29,385.189 168.781,386.034 165,386.617 C143.394,389.946 131.039,394.98 120.875,404.595 C109.733,415.134 106.237,426.93 108.204,447.345 L108.781,453.345 L104.897,457.845 C95.082,469.216 91.584,486.346 95.574,503.508 C96.738,508.515 96.725,508.528 89.121,510.343 C83.112,511.778 69.581,512.397 65.546,511.42 C61.535,510.45 56.613,506.191 55.403,502.646 C54.245,499.251 54.272,490.305 55.459,483.869 C57.569,472.428 71.343,443.268 84.064,423.313 C92.153,410.625 103.068,395.954 109.938,388.533 C119.263,378.46 133.049,372.901 146.505,372.806 z" fill="#000000" id="path30628"/>
  </g>
</svg>
