<?xml version="1.0" encoding="UTF-8"?>
<!DOCTYPE svg PUBLIC "-//W3C//DTD SVG 1.1//EN" "http://www.w3.org/Graphics/SVG/1.1/DTD/svg11.dtd">
<svg version="1.1" xmlns="http://www.w3.org/2000/svg" xmlns:xlink="http://www.w3.org/1999/xlink" x="0" y="0" width="420.09" height="498.076" viewBox="0, 0, 420.09, 498.076">
  <defs>
    <linearGradient id="Gradient_1" gradientUnits="userSpaceOnUse" x1="319.396" y1="472.021" x2="320.438" y2="438.675">
      <stop offset="0" stop-color="#FADCB8"/>
      <stop offset="0.994" stop-color="#F4BE8C"/>
      <stop offset="1" stop-color="#F4BE8C"/>
    </linearGradient>
    <linearGradient id="Gradient_2" gradientUnits="userSpaceOnUse" x1="156.163" y1="377.464" x2="221.835" y2="377.464">
      <stop offset="0" stop-color="#FADCB8"/>
      <stop offset="0.994" stop-color="#F4BE8C"/>
      <stop offset="1" stop-color="#F4BE8C"/>
    </linearGradient>
    <linearGradient id="Gradient_3" gradientUnits="userSpaceOnUse" x1="481.214" y1="377.464" x2="416.251" y2="377.464">
      <stop offset="0" stop-color="#FADCB8"/>
      <stop offset="0.994" stop-color="#F4BE8C"/>
      <stop offset="1" stop-color="#F4BE8C"/>
    </linearGradient>
    <linearGradient id="Gradient_4" gradientUnits="userSpaceOnUse" x1="319.433" y1="455.276" x2="319.433" y2="220.819">
      <stop offset="0" stop-color="#FADCB8"/>
      <stop offset="0.994" stop-color="#F4BE8C"/>
      <stop offset="1" stop-color="#F4BE8C"/>
    </linearGradient>
    <radialGradient id="Gradient_5" gradientUnits="userSpaceOnUse" cx="227.387" cy="383.983" r="33.621" gradientTransform="matrix(1, 0, 0, 1, -109.395, -59.755)">
      <stop offset="0" stop-color="#E9A39D"/>
      <stop offset="1" stop-color="#E9A39D" stop-opacity="0"/>
    </radialGradient>
    <radialGradient id="Gradient_6" gradientUnits="userSpaceOnUse" cx="409.961" cy="383.468" r="33.632" gradientTransform="matrix(1, 0, 0, 1, -109.395, -59.663)">
      <stop offset="0" stop-color="#E5A39E"/>
      <stop offset="1" stop-color="#E5A39E" stop-opacity="0"/>
    </radialGradient>
    <linearGradient id="Gradient_7" gradientUnits="userSpaceOnUse" x1="317.912" y1="514.41" x2="317.912" y2="433.287">
      <stop offset="0" stop-color="#FADCB8"/>
      <stop offset="0.994" stop-color="#F4BE8C"/>
      <stop offset="1" stop-color="#F4BE8C"/>
    </linearGradient>
  </defs>
  <g id="Layer_1">
    <path d="M349.822,317.746 C345.68,307.274 350.111,295.689 359.745,291.874 C369.371,288.059 380.541,293.462 384.689,303.942 C388.289,313.011 385.432,322.912 378.344,327.885 C382.619,330.111 386.226,333.949 388.215,338.973 C391.28,346.714 389.655,355.056 384.705,360.422 C391.288,361.58 397.322,366.33 400.134,373.425 C404.283,383.898 399.845,395.483 390.211,399.298 C390.211,399.298 412.484,410.661 406.962,428.31 L401.441,429.416 C401.441,429.416 398.138,433.825 403.66,438.233 C408.952,442.471 369.564,439.569 381.023,400.315 C374.306,399.253 368.131,394.444 365.274,387.238 C362.201,379.489 363.834,371.154 368.777,365.781 C362.194,364.63 356.16,359.873 353.347,352.792 C349.762,343.716 352.612,333.808 359.7,328.835 C355.425,326.608 351.811,322.771 349.822,317.746" fill="#1A1919" id="path4701"/>
    <path d="M384.749,398.348 C384.749,398.348 388.215,382.517 399.303,378.88 C405.812,376.758 416.967,397.443 410.496,402.72 C404.023,407.996 388.638,404.686 388.638,404.686" fill="#00A3DA" id="path4703"/>
    <path d="M385.766,397.925 C385.766,397.925 372.087,389.234 361.689,394.556 C355.603,397.665 362.431,420.168 370.729,419.278 C379.042,418.402 387.51,405.154 387.51,405.154" fill="#00A3DA" id="path4705"/>
    <path d="M379.628,403.165 C381.097,406.661 385.113,408.316 388.623,406.861 L389.981,406.289 C393.492,404.828 395.147,400.805 393.685,397.309 C392.23,393.798 388.2,392.136 384.689,393.591 L383.339,394.162 C379.835,395.624 378.158,399.647 379.628,403.165" fill="#286AA6" id="path4707"/>
    <path d="M70.054,324.923 C74.21,314.444 69.757,302.866 60.131,299.051 C50.512,295.236 39.342,300.639 35.193,311.119 C31.594,320.188 34.444,330.089 41.532,335.062 C37.264,337.288 33.657,341.125 31.668,346.15 C28.595,353.898 30.228,362.226 35.171,367.599 C28.588,368.757 22.554,373.507 19.741,380.602 C15.6,391.082 20.038,402.667 29.664,406.482 C29.664,406.482 7.398,417.845 12.913,435.487 L18.427,436.593 C18.427,436.593 21.738,441.009 16.223,445.41 C10.924,449.648 50.327,446.746 38.853,407.492 C45.569,406.431 51.751,401.621 54.609,394.414 C57.674,386.666 56.042,378.331 51.106,372.958 C57.682,371.8 63.716,367.058 66.521,359.97 C70.121,350.885 67.271,340.992 60.183,336.019 C64.451,333.792 68.058,329.948 70.054,324.923" fill="#1A1919" id="path4709"/>
    <path d="M35.126,405.525 C35.126,405.525 31.675,389.694 20.572,386.058 C14.071,383.935 2.908,404.62 9.388,409.896 C15.859,415.173 31.238,411.863 31.238,411.863" fill="#00A3DA" id="path4711"/>
    <path d="M34.117,405.102 C34.117,405.102 47.789,396.411 58.187,401.725 C64.28,404.842 57.444,427.345 49.147,426.454 C40.841,425.579 32.366,412.338 32.366,412.338" fill="#00A3DA" id="path4713"/>
    <path d="M40.24,410.334 C38.786,413.837 34.763,415.5 31.252,414.031 L29.894,413.466 C26.391,412.012 24.736,407.989 26.191,404.486 C27.653,400.968 31.683,399.313 35.186,400.775 L36.544,401.339 C40.047,402.801 41.71,406.824 40.24,410.334" fill="#286AA6" id="path4715"/>
    <path d="M232.074,395.372 C242.101,400.842 255.92,408.501 270.371,423.211 C294.284,447.585 286.468,482.312 286.468,498.076 L136.888,498.076 C128.205,476.226 138.157,438.233 146.143,427.798 C154.916,416.324 181.041,399.966 191.283,394.006 C201.941,387.802 222.188,389.969 232.074,395.372" fill="#F6C17B" id="path4717"/>
    <path d="M191.275,392.136 C191.275,392.136 171.192,396.247 165.514,405.525 C165.514,405.525 178.257,428.904 191.275,429.743 C207.248,430.774 211.886,416.346 211.886,416.346 C211.886,416.346 220.125,433.35 233.001,429.743 C245.878,426.128 254.636,408.613 255.156,405.013 C255.156,405.013 241.751,394.192 228.882,392.136 L191.275,392.136" fill="#E893B5" id="path4719"/>
    <path d="M228.971,396.025 C228.971,407.737 217.267,413.392 210.505,413.392 C203.759,413.392 192.055,407.737 192.055,396.025 C192.055,384.321 200.308,374.835 210.505,374.835 C220.71,374.835 228.971,384.321 228.971,396.025 z" fill="url(#Gradient_1)" id="path4721"/>
    <path d="M31.92,298.687 C31.92,298.687 -22.526,213.35 10.798,120.621 C44.115,27.915 137.571,-18.042 208.287,6.57 C208.287,6.57 323.689,-29.531 394.405,91.082 C461.239,205.097 376.525,297.039 376.525,297.039 C376.525,297.039 302.559,342.179 213.163,338.075 C123.766,333.963 39.238,315.913 31.92,298.687" fill="#1A1919" id="path4723"/>
    <path d="M112.44,318.637 C112.44,335.693 98.703,347.738 81.951,349.527 C59.938,351.865 51.314,334.884 47.551,318.244 C42.853,297.515 59.938,279.925 81.951,287.74 C97.827,293.388 112.44,301.574 112.44,318.637 z" fill="url(#Gradient_2)" id="path4725"/>
    <path d="M307.621,318.637 C307.621,335.693 321.381,347.738 338.125,349.527 C360.146,351.865 368.762,334.884 372.533,318.244 C377.223,297.515 360.146,279.925 338.125,287.74 C322.257,293.388 307.621,301.574 307.621,318.637 z" fill="url(#Gradient_3)" id="path4727"/>
    <path d="M356.865,221.128 C356.865,252.494 343.097,304.276 334.236,325.94 C314.234,374.784 257.872,397.769 210.038,397.769 C159.859,397.769 100.758,373.21 84.964,326.593 C77.535,304.587 63.211,252.991 63.211,221.128 C63.211,154.911 114.503,80.744 210.038,80.744 C305.572,80.744 356.865,151.823 356.865,221.128 z" fill="url(#Gradient_4)" id="path4729"/>
    <path d="M151.613,324.308 C151.613,342.884 136.562,357.943 117.992,357.943 C99.422,357.943 84.371,342.884 84.371,324.308 C84.371,305.746 99.422,290.686 117.992,290.686 C136.562,290.686 151.613,305.746 151.613,324.308 z" fill="url(#Gradient_5)" id="path4731"/>
    <path d="M266.934,323.803 C266.934,342.365 282.001,357.431 300.57,357.431 C319.14,357.431 334.199,342.365 334.199,323.803 C334.199,305.226 319.14,290.167 300.57,290.167 C282.001,290.167 266.934,305.226 266.934,323.803 z" fill="url(#Gradient_6)" id="path4733"/>
    <path d="M161.959,309.011 C161.959,320.611 152.941,330.015 141.816,330.015 C130.691,330.015 121.673,320.611 121.673,309.011 C121.673,297.425 130.691,288.015 141.816,288.015 C152.941,288.015 161.959,297.425 161.959,309.011" fill="#2D2118" id="path4735"/>
    <path d="M137.957,298.153 C137.593,298.153 137.222,298.079 136.873,297.893 C125.584,292.252 123.64,279.472 123.558,278.93 C123.373,277.609 124.3,276.384 125.622,276.191 C126.935,276.006 128.168,276.919 128.353,278.24 C128.382,278.373 130.075,289.076 139.048,293.566 C140.235,294.167 140.725,295.615 140.131,296.817 C139.693,297.663 138.847,298.153 137.957,298.153" fill="#2D2118" id="path4737"/>
    <path d="M143.107,297.299 C142.247,297.299 141.408,296.831 140.978,296.023 C134.468,283.954 138.996,273.735 139.189,273.304 C139.738,272.079 141.178,271.545 142.388,272.102 C143.605,272.644 144.139,274.083 143.597,275.301 C143.434,275.657 139.916,283.866 145.238,293.722 C145.869,294.902 145.431,296.371 144.251,297.002 C143.887,297.203 143.494,297.299 143.107,297.299" fill="#2D2118" id="path4739"/>
    <path d="M298.403,309.011 C298.403,320.611 289.385,330.015 278.26,330.015 C267.142,330.015 258.117,320.611 258.117,309.011 C258.117,297.425 267.142,288.015 278.26,288.015 C289.385,288.015 298.403,297.425 298.403,309.011" fill="#2D2118" id="path4741"/>
    <path d="M274.4,298.153 C274.044,298.153 273.673,298.079 273.324,297.893 C262.028,292.252 260.084,279.472 260.002,278.93 C259.824,277.609 260.737,276.384 262.058,276.191 C263.364,276.006 264.611,276.919 264.804,278.24 C264.826,278.373 266.511,289.076 275.492,293.566 C276.687,294.167 277.169,295.615 276.583,296.817 C276.152,297.663 275.291,298.153 274.4,298.153" fill="#2D2118" id="path4743"/>
    <path d="M279.551,297.299 C278.683,297.299 277.859,296.831 277.414,296.023 C270.919,283.954 275.432,273.735 275.632,273.304 C276.182,272.079 277.622,271.531 278.839,272.102 C280.056,272.644 280.59,274.083 280.041,275.301 C279.863,275.694 276.382,283.88 281.681,293.722 C282.32,294.902 281.875,296.371 280.702,297.002 C280.331,297.203 279.937,297.299 279.551,297.299" fill="#2D2118" id="path4745"/>
    <path d="M304.66,246.511 C304.058,246.511 303.457,246.274 303.019,245.777 C289.326,230.636 272.359,235.275 271.647,235.475 C270.489,235.809 269.25,235.141 268.908,233.968 C268.582,232.796 269.25,231.579 270.415,231.237 C271.239,230.992 290.691,225.567 306.3,242.823 C307.124,243.728 307.049,245.123 306.144,245.947 C305.713,246.326 305.194,246.511 304.66,246.511" fill="#7D563A" id="path4747"/>
    <path d="M115.417,246.511 C114.897,246.511 114.363,246.326 113.932,245.947 C113.034,245.123 112.967,243.728 113.784,242.823 C129.392,225.567 148.837,230.992 149.661,231.237 C150.834,231.579 151.501,232.803 151.168,233.976 C150.826,235.141 149.602,235.809 148.429,235.475 C147.702,235.267 130.757,230.636 117.057,245.777 C116.619,246.274 116.018,246.511 115.417,246.511" fill="#7D563A" id="path4749"/>
    <path d="M212.072,326.683 C208.568,326.683 206.089,325.569 204.665,323.35 C201.406,318.266 206.001,310.079 206.951,308.484 C207.708,307.23 209.326,306.829 210.587,307.579 C211.841,308.321 212.257,309.954 211.5,311.215 C209.823,314.036 208.056,318.823 209.132,320.493 C209.623,321.257 211.263,321.554 213.63,321.294 C215.07,321.123 216.391,322.177 216.554,323.632 C216.718,325.087 215.671,326.4 214.209,326.556 C213.459,326.645 212.74,326.683 212.072,326.683" fill="#917E70" id="path4751"/>
    <path d="M212.361,371.963 C209.994,371.963 207.559,371.711 205.073,371.206 C194.311,369.002 185.865,362.345 184.997,355.39 C184.692,352.963 186.407,350.751 188.826,350.454 C191.275,350.143 193.458,351.865 193.762,354.285 C194.059,356.674 199.18,360.979 206.839,362.545 C211.678,363.547 223.635,364.527 230.589,352.615 C231.814,350.499 234.523,349.787 236.638,351.019 C238.738,352.251 239.451,354.953 238.226,357.06 C232.608,366.679 223.242,371.963 212.361,371.963" fill="#E77D84" id="path4753"/>
    <path d="M175.927,437.432 L191.246,425.549 C191.246,425.549 203.084,368.208 203.084,354.656 C203.084,341.103 211.582,345.623 214.981,351.635 C218.365,357.662 214.981,389.264 214.981,389.264 C214.981,389.264 226.863,386.258 235.339,393.784 C243.83,401.309 240.438,423.887 240.438,423.887 C240.438,423.887 235.339,431.412 216.673,437.432 C198,443.451 199.692,455.489 199.692,455.489 z" fill="url(#Gradient_7)" id="path4755"/>
    <path d="M197.317,455.823 C197.235,455.251 195.573,441.714 215.931,435.153 C231.012,430.292 236.824,424.436 238.152,422.907 C239.005,416.517 239.696,400.849 233.751,395.579 C226.359,389.019 215.671,391.572 215.56,391.587 L212.235,392.411 L212.591,389.011 C213.964,376.201 214.966,356.503 212.888,352.808 C211.233,349.883 208.494,347.946 207.21,348.228 C206.617,348.384 205.481,349.935 205.481,354.656 C205.481,368.289 194.081,423.679 193.591,426.032 L193.42,426.9 L177.397,439.324 L174.458,435.539 L189.079,424.199 C190.548,416.97 200.687,366.909 200.687,354.656 C200.687,346.662 203.574,344.228 205.993,343.589 C210.105,342.513 214.669,346.224 217.066,350.454 C220.184,356.006 218.536,377.404 217.675,386.413 C222.166,385.991 230.381,386.176 236.935,391.988 C246.287,400.278 242.954,423.271 242.806,424.243 L242.419,425.23 C242.189,425.564 236.638,433.52 217.408,439.71 C201.065,444.98 202.015,454.769 202.067,455.185 L197.317,455.823" fill="#F2B283" id="path4757"/>
    <path d="M172.832,416.999 C172.832,416.999 117.383,462.079 147.13,488.42 C176.855,514.767 211.767,452.097 211.767,452.097 C211.767,452.097 183.468,438.137 172.832,416.999" fill="#EB8B2D" id="path4759"/>
    <path d="M177.3,418.113 C177.3,418.113 124.011,465.16 148.912,487.025 C173.812,508.882 209.363,449.774 209.363,449.774 C209.363,449.774 191.216,434.27 177.3,418.113" fill="#F6C17B" id="path4761"/>
    <path d="M55.774,155.467 C55.774,155.467 54.297,221.663 184.759,229.441 C184.759,229.441 167.207,217.722 173.456,195.634 C173.456,195.634 199.929,236.848 315.325,230.398 C315.325,230.398 296.963,223.281 303.212,202.143 C303.212,202.143 319.986,231.43 359.099,229.441 C359.099,229.441 384.749,21.576 198.059,30.579 C38.57,38.253 55.774,155.467 55.774,155.467" fill="#1A1919" id="path4763"/>
  </g>
</svg>
